# xmcd CD database file generated by LOLA_Freedb v0.9beta0
# 
# Track frame offsets:
#      150
#      21939
#      35166
#      48398
#      60462
# 
# Disc length: 951 seconds
# 
# Revision: 0 
# Processed by: cddbd v1.5.2PL0 Copyright (c) Steve Scherf et al.
# Submitted via: LOLA_Freedb v0.9beta0
# 
DISCID=3e03b505
DTITLE=Waylon Jennings - What Goes Around Comes Around
DYEAR=1900
DGENRE=
TTITLE0=Waylon Jennings - I Ain't Living Long Like This
TTITLE1=Waylon Jennings - What Goes Around
TTITLE2=Waylon Jennings - Another Man's Fool
TTITLE3=Waylon Jennings - I Got the Train Sittin' Waitin"
TTITLE4=Waylon Jennings - It's the World's Gone Crazy
EXTD=
EXTT0=
EXTT1=
EXTT2=
EXTT3=
EXTT4=
PLAYORDER=
